<svg xmlns="http://www.w3.org/2000/svg" version="1.1" xmlns:xlink="http://www.w3.org/1999/xlink" xmlns:svgjs="http://svgjs.dev/svgjs" width="1500" height="1500" viewBox="0 0 1500 1500"><rect width="1500" height="1500" fill="#ffffff"></rect><g transform="matrix(0.6666666666666666,0,0,0.6666666666666666,249.39393939393938,688.0440215979977)"><svg viewBox="0 0 396 49" data-background-color="#080808" preserveAspectRatio="xMidYMid meet" height="185" width="1500" xmlns="http://www.w3.org/2000/svg" xmlns:xlink="http://www.w3.org/1999/xlink"><g id="tight-bounds" transform="matrix(1,0,0,1,0.2400000000000091,0.11494277052526058)"><svg viewBox="0 0 395.52 48.77011445894945" height="48.77011445894945" width="395.52"><g><svg viewBox="0 0 395.52 48.77011445894945" height="48.77011445894945" width="395.52"><g><svg viewBox="0 0 395.52 48.77011445894945" height="48.77011445894945" width="395.52"><g id="textblocktransform"><svg viewBox="0 0 395.52 48.77011445894945" height="48.77011445894945" width="395.52" id="textblock"><g><svg viewBox="0 0 395.52 48.77011445894945" height="48.77011445894945" width="395.52"><g transform="matrix(1,0,0,1,0,0)"><svg width="395.52" viewBox="3.98 -41.19 394.57 48.66" height="48.77011445894945" data-palette-color="#e1c564"><path d="M13.67-15.33L13.67 0 3.98 0 3.98-35.16 29.22-35.16 29.22-30.66 13.67-30.66 13.67-19.8 25.68-19.8 25.68-15.33 13.67-15.33ZM60.47-28.2L60.47 0 52.22 0 52.22-3.37Q50.75-1.37 48.69-0.4 46.63 0.56 44.16 0.56L44.16 0.56Q40.94 0.56 38.4-0.59 35.86-1.73 34.1-3.72 32.35-5.71 31.42-8.4 30.49-11.08 30.49-14.16L30.49-14.16Q30.49-17.24 31.42-19.92 32.35-22.61 34.1-24.6 35.86-26.59 38.4-27.73 40.94-28.88 44.16-28.88L44.16-28.88Q45.8-28.88 47.28-28.39 48.75-27.91 49.99-27.01 51.22-26.12 52.16-24.87 53.1-23.61 53.64-22.07L53.64-22.07 57.3-28.2 60.47-28.2ZM52.17-14.16L52.17-14.16Q52.17-15.26 52.06-16.48 51.95-17.7 51.68-18.9 51.41-20.09 50.94-21.18 50.46-22.27 49.72-23.11 48.97-23.95 47.92-24.44 46.87-24.93 45.48-24.93L45.48-24.93Q44.09-24.93 43.06-24.43 42.04-23.93 41.31-23.08 40.57-22.24 40.1-21.14 39.62-20.04 39.35-18.85 39.08-17.65 38.97-16.44 38.86-15.23 38.86-14.16L38.86-14.16Q38.86-13.09 38.97-11.87 39.08-10.64 39.35-9.45 39.62-8.25 40.1-7.15 40.57-6.05 41.31-5.21 42.04-4.37 43.06-3.87 44.09-3.37 45.48-3.37L45.48-3.37Q46.75-3.37 47.74-3.89 48.73-4.42 49.47-5.3 50.22-6.18 50.73-7.3 51.24-8.42 51.56-9.62 51.88-10.82 52.02-12 52.17-13.18 52.17-14.16ZM77.97-24.93L77.97 0 69.7 0 69.7-24.93 64.57-24.93 64.57-28.2 69.7-28.2 69.7-38.57 77.97-38.57 77.97-28.2 86.52-28.2 86.52-24.93 77.97-24.93ZM99.02-35.01L99.02-35.01Q99.02-34.08 98.66-33.25 98.31-32.42 97.7-31.81 97.09-31.2 96.26-30.85 95.43-30.49 94.5-30.49L94.5-30.49Q93.57-30.49 92.75-30.85 91.94-31.2 91.33-31.81 90.72-32.42 90.36-33.25 90.01-34.08 90.01-35.01L90.01-35.01Q90.01-35.94 90.36-36.76 90.72-37.57 91.33-38.18 91.94-38.79 92.75-39.15 93.57-39.5 94.5-39.5L94.5-39.5Q95.43-39.5 96.26-39.15 97.09-38.79 97.7-38.18 98.31-37.57 98.66-36.76 99.02-35.94 99.02-35.01ZM98.65-28.17L98.65 0 90.37 0 90.37-28.17 98.65-28.17ZM149.18-16.46L149.18-16.46Q149.18-13.55 148.5-10.4 147.82-7.25 146.58-4.26 145.35-1.27 143.62 1.39 141.88 4.05 139.76 6.01L139.76 6.01 136.66 4.32Q137.37 3.05 137.95 1.46 138.54-0.12 139.03-1.88 139.52-3.64 139.88-5.49 140.25-7.35 140.51-9.19 140.76-11.04 140.88-12.77 141.01-14.5 141.01-16.02L141.01-16.02Q141.01-16.87 140.96-17.87 140.91-18.87 140.75-19.87 140.59-20.87 140.27-21.79 139.96-22.71 139.41-23.43 138.86-24.15 138.04-24.57 137.22-25 136.07-25L136.07-25Q134.95-25 134.16-24.4 133.36-23.8 132.8-22.85 132.24-21.9 131.91-20.7 131.58-19.51 131.41-18.3 131.24-17.09 131.18-15.99 131.12-14.89 131.12-14.14L131.12-14.14 131.12 0 122.89 0 122.89-13.13Q122.89-13.99 122.91-15.2 122.94-16.41 122.85-17.72 122.77-19.04 122.54-20.35 122.3-21.66 121.8-22.68 121.3-23.71 120.45-24.35 119.59-25 118.3-25L118.3-25Q117.2-25 116.46-24.39 115.71-23.78 115.21-22.81 114.71-21.85 114.43-20.64 114.15-19.43 114.02-18.23 113.88-17.02 113.86-15.93 113.83-14.84 113.83-14.14L113.83-14.14 113.83 0 105.56 0 105.56-28.2 108.73-28.2 111.76-21.63Q112.78-25.05 114.99-26.97 117.2-28.88 120.86-28.88L120.86-28.88Q124.16-28.88 126.33-27.51 128.51-26.15 129.75-23.07L129.75-23.07Q130.46-24.41 131.33-25.49 132.19-26.56 133.25-27.32 134.32-28.08 135.61-28.48 136.9-28.88 138.47-28.88L138.47-28.88Q141.35-28.88 143.39-27.94 145.42-27 146.72-25.34 148.01-23.68 148.6-21.4 149.18-19.12 149.18-16.46ZM183.07-28.2L183.07 0 174.82 0 174.82-3.37Q173.35-1.37 171.29-0.4 169.23 0.56 166.76 0.56L166.76 0.56Q163.54 0.56 161-0.59 158.46-1.73 156.7-3.72 154.94-5.71 154.02-8.4 153.09-11.08 153.09-14.16L153.09-14.16Q153.09-17.24 154.02-19.92 154.94-22.61 156.7-24.6 158.46-26.59 161-27.73 163.54-28.88 166.76-28.88L166.76-28.88Q168.4-28.88 169.87-28.39 171.35-27.91 172.58-27.01 173.82-26.12 174.76-24.87 175.7-23.61 176.23-22.07L176.23-22.07 179.89-28.2 183.07-28.2ZM174.77-14.16L174.77-14.16Q174.77-15.26 174.66-16.48 174.55-17.7 174.28-18.9 174.01-20.09 173.53-21.18 173.06-22.27 172.31-23.11 171.57-23.95 170.52-24.44 169.47-24.93 168.08-24.93L168.08-24.93Q166.69-24.93 165.66-24.43 164.64-23.93 163.9-23.08 163.17-22.24 162.7-21.14 162.22-20.04 161.95-18.85 161.68-17.65 161.57-16.44 161.46-15.23 161.46-14.16L161.46-14.16Q161.46-13.09 161.57-11.87 161.68-10.64 161.95-9.45 162.22-8.25 162.7-7.15 163.17-6.05 163.9-5.21 164.64-4.37 165.66-3.87 166.69-3.37 168.08-3.37L168.08-3.37Q169.35-3.37 170.34-3.89 171.33-4.42 172.07-5.3 172.81-6.18 173.33-7.3 173.84-8.42 174.16-9.62 174.47-10.82 174.62-12 174.77-13.18 174.77-14.16ZM238.12-16.82L238.12-16.82 238.12-16.36Q238.07-14.31 237.69-12.11 237.31-9.91 236.63-7.71 235.94-5.52 234.99-3.37 234.04-1.22 232.86 0.74 231.67 2.71 230.3 4.43 228.94 6.15 227.42 7.47L227.42 7.47 223.79 5.37Q224.64 3.93 225.34 2.23 226.03 0.54 226.59-1.32 227.16-3.17 227.56-5.13 227.96-7.08 228.23-9.01 228.5-10.94 228.63-12.81 228.77-14.67 228.77-16.36L228.77-16.36Q228.77-17.68 228.75-19.35 228.74-21.02 228.56-22.75 228.38-24.49 227.96-26.14 227.55-27.78 226.73-29.08 225.91-30.37 224.63-31.15 223.35-31.93 221.44-31.93L221.44-31.93Q219.76-31.93 218.55-31.36 217.34-30.79 216.5-29.82 215.66-28.86 215.16-27.59 214.66-26.32 214.37-24.91 214.09-23.51 214.01-22.08 213.92-20.65 213.92-19.38L213.92-19.38 213.92-12.57 224.45-12.57 224.45-8.54 213.92-8.54 213.92 0 204.23 0 204.23-17.87Q204.23-21.7 205.45-25 206.67-28.3 208.91-30.73 211.14-33.15 214.28-34.53 217.41-35.91 221.27-35.91L221.27-35.91Q223.88-35.91 226.17-35.17 228.45-34.42 230.33-33.12 232.21-31.81 233.69-30.02 235.16-28.22 236.15-26.1 237.14-23.97 237.65-21.61 238.17-19.24 238.12-16.82ZM251.76-32.62L251.76 0 243.51 0 243.51-41.19 246.68-41.19 251.76-32.62ZM287.04-28.2L287.04 0 278.79 0 278.79-3.37Q277.32-1.37 275.26-0.4 273.2 0.56 270.73 0.56L270.73 0.56Q267.51 0.56 264.97-0.59 262.43-1.73 260.67-3.72 258.91-5.71 257.99-8.4 257.06-11.08 257.06-14.16L257.06-14.16Q257.06-17.24 257.99-19.92 258.91-22.61 260.67-24.6 262.43-26.59 264.97-27.73 267.51-28.88 270.73-28.88L270.73-28.88Q272.37-28.88 273.84-28.39 275.32-27.91 276.55-27.01 277.79-26.12 278.73-24.87 279.67-23.61 280.2-22.07L280.2-22.07 283.86-28.2 287.04-28.2ZM278.74-14.16L278.74-14.16Q278.74-15.26 278.63-16.48 278.52-17.7 278.25-18.9 277.98-20.09 277.5-21.18 277.03-22.27 276.28-23.11 275.54-23.95 274.49-24.44 273.44-24.93 272.05-24.93L272.05-24.93Q270.66-24.93 269.63-24.43 268.61-23.93 267.87-23.08 267.14-22.24 266.66-21.14 266.19-20.04 265.92-18.85 265.65-17.65 265.54-16.44 265.43-15.23 265.43-14.16L265.43-14.16Q265.43-13.09 265.54-11.87 265.65-10.64 265.92-9.45 266.19-8.25 266.66-7.15 267.14-6.05 267.87-5.21 268.61-4.37 269.63-3.87 270.66-3.37 272.05-3.37L272.05-3.37Q273.32-3.37 274.31-3.89 275.29-4.42 276.04-5.3 276.78-6.18 277.3-7.3 277.81-8.42 278.13-9.62 278.44-10.82 278.59-12 278.74-13.18 278.74-14.16ZM304.54-24.93L304.54 0 296.26 0 296.26-24.93 291.14-24.93 291.14-28.2 296.26-28.2 296.26-38.57 304.54-38.57 304.54-28.2 313.09-28.2 313.09-24.93 304.54-24.93ZM327.54-24.93L327.54 0 319.26 0 319.26-24.93 314.13-24.93 314.13-28.2 319.26-28.2 319.26-38.57 327.54-38.57 327.54-28.2 336.08-28.2 336.08-24.93 327.54-24.93ZM367.4-28.2L367.4 0 359.15 0 359.15-3.37Q357.68-1.37 355.62-0.4 353.56 0.56 351.09 0.56L351.09 0.56Q347.87 0.56 345.33-0.59 342.79-1.73 341.03-3.72 339.28-5.71 338.35-8.4 337.42-11.08 337.42-14.16L337.42-14.16Q337.42-17.24 338.35-19.92 339.28-22.61 341.03-24.6 342.79-26.59 345.33-27.73 347.87-28.88 351.09-28.88L351.09-28.88Q352.73-28.88 354.21-28.39 355.68-27.91 356.92-27.01 358.15-26.12 359.09-24.87 360.03-23.61 360.57-22.07L360.57-22.07 364.23-28.2 367.4-28.2ZM359.1-14.16L359.1-14.16Q359.1-15.26 358.99-16.48 358.88-17.7 358.61-18.9 358.34-20.09 357.87-21.18 357.39-22.27 356.65-23.11 355.9-23.95 354.85-24.44 353.8-24.93 352.41-24.93L352.41-24.93Q351.02-24.93 349.99-24.43 348.97-23.93 348.24-23.08 347.5-22.24 347.03-21.14 346.55-20.04 346.28-18.85 346.01-17.65 345.91-16.44 345.8-15.23 345.8-14.16L345.8-14.16Q345.8-13.09 345.91-11.87 346.01-10.64 346.28-9.45 346.55-8.25 347.03-7.15 347.5-6.05 348.24-5.21 348.97-4.37 349.99-3.87 351.02-3.37 352.41-3.37L352.41-3.37Q353.68-3.37 354.67-3.89 355.66-4.42 356.4-5.3 357.15-6.18 357.66-7.3 358.17-8.42 358.49-9.62 358.81-10.82 358.95-12 359.1-13.18 359.1-14.16ZM398.55-9.01L398.55-9.01Q398.55-7.15 398.01-5.71 397.48-4.27 396.55-3.21 395.62-2.15 394.35-1.43 393.08-0.71 391.63-0.27 390.18 0.17 388.59 0.37 387 0.56 385.44 0.56L385.44 0.56Q383.34 0.56 381.73 0.29 380.12 0.02 378.65-0.57 377.19-1.17 375.74-2.12 374.28-3.08 372.5-4.44L372.5-4.44 377.31-8.37Q377.97-7.13 379.06-6.12 380.14-5.1 381.32-4.37 382.49-3.64 383.59-3.25 384.68-2.86 385.37-2.86L385.37-2.86Q385.93-2.86 386.64-2.89 387.35-2.93 388.08-3.04 388.81-3.15 389.52-3.37 390.23-3.59 390.78-3.97 391.32-4.35 391.65-4.92 391.98-5.49 391.98-6.3L391.98-6.3Q391.98-7.13 391.56-7.75 391.13-8.37 390.45-8.84 389.76-9.3 388.88-9.62 388-9.94 387.11-10.18 386.22-10.42 385.39-10.61 384.56-10.79 383.95-10.96L383.95-10.96Q382.83-11.28 381.58-11.61 380.34-11.94 379.12-12.37 377.9-12.79 376.79-13.38 375.68-13.96 374.83-14.78 373.99-15.6 373.49-16.71 372.99-17.82 372.99-19.31L372.99-19.31Q372.99-22.05 374.08-23.89 375.16-25.73 376.95-26.84 378.73-27.95 381-28.42 383.27-28.88 385.61-28.88L385.61-28.88Q387.22-28.88 389.01-28.55 390.79-28.22 392.47-27.58 394.16-26.93 395.62-26 397.09-25.07 398.06-23.88L398.06-23.88 393.25-19.92Q392.72-21.39 391.85-22.44 390.98-23.49 389.97-24.16 388.96-24.83 387.89-25.15 386.83-25.46 385.93-25.46L385.93-25.46Q385.05-25.46 383.95-25.39 382.85-25.32 381.89-24.98 380.92-24.63 380.25-23.94 379.58-23.24 379.58-22.02L379.58-22.02Q379.58-21.14 379.98-20.52 380.39-19.9 381.05-19.45 381.71-18.99 382.55-18.69 383.39-18.38 384.27-18.15 385.15-17.92 385.98-17.75 386.81-17.58 387.47-17.38L387.47-17.38Q388.59-17.07 389.85-16.74 391.11-16.41 392.33-15.98 393.55-15.55 394.68-14.98 395.82-14.4 396.67-13.57 397.53-12.74 398.04-11.63 398.55-10.52 398.55-9.01Z" opacity="1" transform="matrix(1,0,0,1,0,0)" fill="#000000" class="wordmark-text-0" data-fill-palette-color="primary" id="text-0"></path></svg></g></svg></g></svg></g></svg></g><g></g></svg></g><defs></defs></svg><rect width="395.52" height="48.77011445894945" fill="none" stroke="none" visibility="hidden"></rect></g></svg></g></svg>