<svg xmlns="http://www.w3.org/2000/svg" version="1.1" xmlns:xlink="http://www.w3.org/1999/xlink" xmlns:svgjs="http://svgjs.dev/svgjs" width="1500" height="1500" viewBox="0 0 1500 1500"><rect width="1500" height="1500" fill="#080808"></rect><g transform="matrix(0.6666666666666666,0,0,0.6666666666666666,249.39393939393938,438.5856950067477)"><svg viewBox="0 0 396 247" data-background-color="#080808" preserveAspectRatio="xMidYMid meet" height="935" width="1500" xmlns="http://www.w3.org/2000/svg" xmlns:xlink="http://www.w3.org/1999/xlink"><g id="tight-bounds" transform="matrix(1,0,0,1,0.2400000000000091,-0.09999999999999432)"><svg viewBox="0 0 395.52 247.2" height="247.2" width="395.52"><g><svg></svg></g><g><svg viewBox="0 0 395.52 247.2" height="247.2" width="395.52"><g transform="matrix(1,0,0,1,75.54432,108.56104186046511)"><svg viewBox="0 0 244.43135999999998 30.077916279069772" height="30.077916279069772" width="244.43135999999998"><g><svg viewBox="0 0 244.43135999999998 30.077916279069772" height="30.077916279069772" width="244.43135999999998"><g><svg viewBox="0 0 244.43135999999998 30.077916279069772" height="30.077916279069772" width="244.43135999999998"><g><svg viewBox="0 0 244.43135999999998 30.077916279069772" height="30.077916279069772" width="244.43135999999998"><g id="textblocktransform"><svg viewBox="0 0 244.43135999999998 30.077916279069772" height="30.077916279069772" width="244.43135999999998" id="textblock"><g><svg viewBox="0 0 244.43135999999998 30.077916279069772" height="30.077916279069772" width="244.43135999999998"><g transform="matrix(1,0,0,1,0,0)"><svg width="244.43135999999998" viewBox="4.53 -40.4 332.14000000000004 40.879999999999995" height="30.077916279069772" data-palette-color="#e1c567"><path d="M28.65-37L28.65-33.45 8.7-33.45 8.7-20.43 26.15-20.43 26.15-16.9 8.7-16.9 8.7 0 4.53 0 4.53-37 28.65-37ZM40.7-27.55Q44.42-27.55 46.82-26.61 49.22-25.68 50.44-23.5 51.65-21.33 51.65-17.63L51.65-17.63 51.65 0 48.22 0 47.92-3.08 47.65-3.08Q46.25-1.43 44-0.49 41.75 0.45 39.22 0.45L39.22 0.45Q36.52 0.45 34.59-0.45 32.65-1.35 31.62-3.03 30.6-4.7 30.6-6.98L30.6-6.98Q30.6-10.53 33.05-12.49 35.5-14.45 40.87-14.98L40.87-14.98 47.62-15.7 47.62-17.8Q47.62-20.28 46.81-21.68 46-23.08 44.38-23.65 42.77-24.23 40.2-24.23L40.2-24.23Q38.4-24.23 36.35-23.91 34.3-23.6 32.37-22.95L32.37-22.95 32.37-26.28Q34.15-26.9 36.37-27.23 38.6-27.55 40.7-27.55L40.7-27.55ZM40.22-2.7Q42.3-2.7 44.21-3.51 46.12-4.33 47.62-5.95L47.62-5.95 47.62-12.98 41.15-12.28Q37.75-11.88 36.25-10.69 34.75-9.5 34.75-7.33L34.75-7.33Q34.75-5.1 36.12-3.9 37.5-2.7 40.22-2.7L40.22-2.7ZM71.37-3.05Q72.8-3.05 75-3.5L75-3.5 75-0.05Q72.67 0.48 70.47 0.48L70.47 0.48Q65.9 0.48 63.5-1.84 61.1-4.15 61.1-8.9L61.1-8.9 61.1-23.75 55.75-23.75 55.75-27.13 61.1-27.13 61.8-37 65.2-37 65.2-27.13 74.57-27.13 74.57-23.75 65.2-23.75 65.2-9.58Q65.2-6.08 66.72-4.56 68.25-3.05 71.37-3.05L71.37-3.05ZM83.72 0L79.59 0 79.59-27.13 83.72-27.13 83.72 0ZM81.67-32.98Q80.29-32.98 79.56-33.65 78.82-34.33 78.82-35.52L78.82-35.52Q78.82-36.75 79.56-37.43 80.29-38.1 81.67-38.1L81.67-38.1Q83.04-38.1 83.78-37.43 84.52-36.75 84.52-35.52L84.52-35.52Q84.52-34.33 83.78-33.65 83.04-32.98 81.67-32.98L81.67-32.98ZM120.14-27.55Q124.19-27.55 126.49-25.14 128.79-22.73 128.79-17.53L128.79-17.53 128.79 0 124.69 0 124.69-17.32Q124.69-20.83 123.24-22.36 121.79-23.9 119.17-23.9L119.17-23.9Q117.29-23.9 115.44-23.08 113.59-22.25 112.22-20.48L112.22-20.48Q112.44-19.2 112.44-17.63L112.44-17.63 112.44 0 108.42 0 108.42-17.32Q108.42-20.85 107.02-22.38 105.62-23.9 103.04-23.9L103.04-23.9Q101.07-23.9 99.19-22.99 97.32-22.08 95.97-20.23L95.97-20.23 95.97 0 91.87 0 91.87-27.13 95.32-27.13 95.62-24 95.89-24Q97.49-25.73 99.62-26.64 101.74-27.55 104.14-27.55L104.14-27.55Q109.27-27.55 111.27-23.6L111.27-23.6Q113.19-25.65 115.49-26.6 117.79-27.55 120.14-27.55L120.14-27.55ZM145.24-27.55Q148.96-27.55 151.36-26.61 153.76-25.68 154.98-23.5 156.19-21.33 156.19-17.63L156.19-17.63 156.19 0 152.76 0 152.46-3.08 152.19-3.08Q150.79-1.43 148.54-0.49 146.29 0.45 143.76 0.45L143.76 0.45Q141.06 0.45 139.13-0.45 137.19-1.35 136.16-3.03 135.14-4.7 135.14-6.98L135.14-6.98Q135.14-10.53 137.59-12.49 140.04-14.45 145.41-14.98L145.41-14.98 152.16-15.7 152.16-17.8Q152.16-20.28 151.35-21.68 150.54-23.08 148.93-23.65 147.31-24.23 144.74-24.23L144.74-24.23Q142.94-24.23 140.89-23.91 138.84-23.6 136.91-22.95L136.91-22.95 136.91-26.28Q138.69-26.9 140.91-27.23 143.14-27.55 145.24-27.55L145.24-27.55ZM144.76-2.7Q146.84-2.7 148.75-3.51 150.66-4.33 152.16-5.95L152.16-5.95 152.16-12.98 145.69-12.28Q142.29-11.88 140.79-10.69 139.29-9.5 139.29-7.33L139.29-7.33Q139.29-5.1 140.66-3.9 142.04-2.7 144.76-2.7L144.76-2.7ZM207.93 0L203.68 0 199.21-11.93 182.51-11.93 178.03 0 173.86 0 187.96-37 193.81-37 207.93 0ZM190.86-34.1L183.83-15.43 197.88-15.43 190.86-34.1ZM216.93 0L212.83 0 212.83-40.4 216.93-40.4 216.93 0ZM233.73-27.55Q237.45-27.55 239.85-26.61 242.25-25.68 243.47-23.5 244.68-21.33 244.68-17.63L244.68-17.63 244.68 0 241.25 0 240.95-3.08 240.68-3.08Q239.28-1.43 237.03-0.49 234.78 0.45 232.25 0.45L232.25 0.45Q229.55 0.45 227.62-0.45 225.68-1.35 224.65-3.03 223.63-4.7 223.63-6.98L223.63-6.98Q223.63-10.53 226.08-12.49 228.53-14.45 233.9-14.98L233.9-14.98 240.65-15.7 240.65-17.8Q240.65-20.28 239.84-21.68 239.03-23.08 237.42-23.65 235.8-24.23 233.23-24.23L233.23-24.23Q231.43-24.23 229.38-23.91 227.33-23.6 225.4-22.95L225.4-22.95 225.4-26.28Q227.18-26.9 229.4-27.23 231.63-27.55 233.73-27.55L233.73-27.55ZM233.25-2.7Q235.33-2.7 237.24-3.51 239.15-4.33 240.65-5.95L240.65-5.95 240.65-12.98 234.18-12.28Q230.78-11.88 229.28-10.69 227.78-9.5 227.78-7.33L227.78-7.33Q227.78-5.1 229.15-3.9 230.53-2.7 233.25-2.7L233.25-2.7ZM264.4-3.05Q265.83-3.05 268.03-3.5L268.03-3.5 268.03-0.05Q265.7 0.48 263.5 0.48L263.5 0.48Q258.93 0.48 256.53-1.84 254.13-4.15 254.13-8.9L254.13-8.9 254.13-23.75 248.78-23.75 248.78-27.13 254.13-27.13 254.83-37 258.23-37 258.23-27.13 267.6-27.13 267.6-23.75 258.23-23.75 258.23-9.58Q258.23-6.08 259.75-4.56 261.28-3.05 264.4-3.05L264.4-3.05ZM282.87-3.05Q284.3-3.05 286.5-3.5L286.5-3.5 286.5-0.05Q284.17 0.48 281.97 0.48L281.97 0.48Q277.4 0.48 275-1.84 272.6-4.15 272.6-8.9L272.6-8.9 272.6-23.75 267.25-23.75 267.25-27.13 272.6-27.13 273.3-37 276.7-37 276.7-27.13 286.07-27.13 286.07-23.75 276.7-23.75 276.7-9.58Q276.7-6.08 278.22-4.56 279.75-3.05 282.87-3.05L282.87-3.05ZM299.65-27.55Q303.37-27.55 305.77-26.61 308.17-25.68 309.38-23.5 310.6-21.33 310.6-17.63L310.6-17.63 310.6 0 307.17 0 306.87-3.08 306.6-3.08Q305.2-1.43 302.95-0.49 300.7 0.45 298.17 0.45L298.17 0.45Q295.47 0.45 293.53-0.45 291.6-1.35 290.57-3.03 289.55-4.7 289.55-6.98L289.55-6.98Q289.55-10.53 292-12.49 294.45-14.45 299.82-14.98L299.82-14.98 306.57-15.7 306.57-17.8Q306.57-20.28 305.76-21.68 304.95-23.08 303.33-23.65 301.72-24.23 299.15-24.23L299.15-24.23Q297.35-24.23 295.3-23.91 293.25-23.6 291.32-22.95L291.32-22.95 291.32-26.28Q293.1-26.9 295.32-27.23 297.55-27.55 299.65-27.55L299.65-27.55ZM299.17-2.7Q301.25-2.7 303.16-3.51 305.07-4.33 306.57-5.95L306.57-5.95 306.57-12.98 300.1-12.28Q296.7-11.88 295.2-10.69 293.7-9.5 293.7-7.33L293.7-7.33Q293.7-5.1 295.07-3.9 296.45-2.7 299.17-2.7L299.17-2.7ZM325.52 0.48Q321.02 0.48 317.39-0.65L317.39-0.65 317.39-3.93Q319.49-3.3 321.46-3.03 323.42-2.75 325.54-2.75L325.54-2.75Q329.29-2.75 331.01-3.9 332.72-5.05 332.72-7.28L332.72-7.28Q332.72-9.1 331.73-10.06 330.74-11.03 328.27-11.48L328.27-11.48 324.12-12.25Q320.32-12.98 318.61-14.79 316.89-16.6 316.89-19.65L316.89-19.65Q316.89-22 318.12-23.78 319.34-25.55 321.87-26.55 324.39-27.55 328.22-27.55L328.22-27.55Q331.97-27.55 335.14-26.65L335.14-26.65 335.14-23.38Q333.39-23.88 331.74-24.1 330.09-24.33 328.29-24.33L328.29-24.33Q324.32-24.33 322.58-23.09 320.84-21.85 320.84-19.75L320.84-19.75Q320.84-18.1 321.81-17.07 322.77-16.05 325.14-15.58L325.14-15.58 329.27-14.83Q333.14-14.1 334.91-12.36 336.67-10.63 336.67-7.53L336.67-7.53Q336.67-3.75 333.83-1.64 330.99 0.48 325.52 0.48L325.52 0.48Z" opacity="1" transform="matrix(1,0,0,1,0,0)" fill="#e1c567" class="wordmark-text-0" data-fill-palette-color="primary" id="text-0"></path></svg></g></svg></g></svg></g></svg></g></svg></g></svg></g></svg></g><path d="M219.706 102.561L219.706 38.442 390.022 38.442 390.022 208.758 219.706 208.758 219.706 144.639 222.418 144.639 222.418 206.046 387.31 206.046 387.31 41.154 222.418 41.154 222.418 102.561Z" fill="#e1c564" stroke="transparent" data-fill-palette-color="tertiary"></path></svg></g><defs></defs></svg><rect width="395.52" height="247.2" fill="none" stroke="none" visibility="hidden"></rect></g></svg></g></svg>